<svg xmlns="http://www.w3.org/2000/svg" enable-background="new 0 0 100 100" viewBox="0 0 100 100"><path d="M37,45h-8c-1.1,0-2,0.9-2,2v8c0,1.1,0.9,2,2,2h8c1.1,0,2-0.9,2-2v-8C39,45.9,38.1,45,37,45z M35,53h-4v-4h4V53z M91,47h-8
	v-8c0-1.1-0.9-2-2-2h-8v-6c0-1.1-0.9-2-2-2h-6v-4h6c1.1,0,2-0.9,2-2v-8c0-1.1-0.9-2-2-2h-8c-1.1,0-2,0.9-2,2v6h-6c-1.1,0-2,0.9-2,2
	v6h-6v-6c0-1.1-0.9-2-2-2h-6v-6c0-1.1-0.9-2-2-2h-8c-1.1,0-2,0.9-2,2v8c0,1.1,0.9,2,2,2h6v4h-6c-1.1,0-2,0.9-2,2v6h-8
	c-1.1,0-2,0.9-2,2v8H9c-1.1,0-2,0.9-2,2v28c0,1.1,0.9,2,2,2h8c1.1,0,2-0.9,2-2V65h6v12c0,1.1,0.9,2,2,2h6v6c0,1.1,0.9,2,2,2h8
	c1.1,0,2-0.9,2-2v-8c0-1.1-0.9-2-2-2h-6v-4h26v4h-6c-1.1,0-2,0.9-2,2v8c0,1.1,0.9,2,2,2h8c1.1,0,2-0.9,2-2v-6h6c1.1,0,2-0.9,2-2V65
	h6v12c0,1.1,0.9,2,2,2h8c1.1,0,2-0.9,2-2V49C93,47.9,92.1,47,91,47z M65,17h4v4h-4V17z M31,17h4v4h-4V17z M41,83h-4v-4h4V83z M63,83
	h-4v-4h4V83z M85,75V63c0-1.1-0.9-2-2-2H73c-1.1,0-2,0.9-2,2v12h-4v-6c0-1.1-0.9-2-2-2H35c-1.1,0-2,0.9-2,2v6h-4V63c0-1.1-0.9-2-2-2
	H17c-1.1,0-2,0.9-2,2v12h-4V51h8c1.1,0,2-0.9,2-2v-8h8c1.1,0,2-0.9,2-2v-6h6c1.1,0,2-0.9,2-2v-6h4v6c0,1.1,0.9,2,2,2h10
	c1.1,0,2-0.9,2-2v-6h4v6c0,1.1,0.9,2,2,2h6v6c0,1.1,0.9,2,2,2h8v8c0,1.1,0.9,2,2,2h8v24H85z M71,45h-8c-1.1,0-2,0.9-2,2v8
	c0,1.1,0.9,2,2,2h8c1.1,0,2-0.9,2-2v-8C73,45.9,72.1,45,71,45z M69,53h-4v-4h4V53z"/></svg>